<?xml version="1.0" encoding="utf-8"?>
<!-- Generator: Adobe Illustrator 19.0.0, SVG Export Plug-In . SVG Version: 6.00 Build 0)  -->
<svg version="1.1" id="Layer_1" xmlns="http://www.w3.org/2000/svg" xmlns:xlink="http://www.w3.org/1999/xlink" x="0px" y="0px"
	 viewBox="0 0 280 298" style="enable-background:new 0 0 280 298;" xml:space="preserve">
<style type="text/css">
	.st0{fill:#F7931E;}
	.st1{fill:#FFFFFF;}
</style>
<rect id="XMLID_23_" class="st0" width="280" height="298"/>
<g id="XMLID_19_">
	<path id="XMLID_20_" class="st1" d="M140.6,238.5c-3.8,0-7.4-0.9-10.2-2.5l-60.4-34.8c-5.7-3.3-10.2-11.1-10.2-17.7v-69.7
		c0-6.6,4.5-14.4,10.2-17.7l60.4-34.8c2.8-1.6,6.4-2.5,10.2-2.5c3.8,0,7.4,0.9,10.2,2.5l60.4,34.8c5.7,3.3,10.2,11.1,10.2,17.7v69.7
		c0,6.6-4.5,14.4-10.2,17.7L150.8,236C148.1,237.6,144.4,238.5,140.6,238.5z M140.6,67.8c-2.2,0-4.3,0.5-5.7,1.3l-60.4,34.8
		c-3,1.7-5.7,6.4-5.7,9.8v69.7c0,3.4,2.7,8.1,5.7,9.8l60.4,34.8c1.4,0.8,3.5,1.3,5.7,1.3c2.2,0,4.3-0.5,5.7-1.3l60.4-34.8
		c3-1.7,5.7-6.4,5.7-9.8v-69.7c0-3.4-2.7-8.1-5.7-9.8l-60.4-34.8C144.9,68.3,142.8,67.8,140.6,67.8z"/>
</g>
<g id="XMLID_17_">
	<path id="XMLID_18_" class="st1" d="M107.8,174.3c-0.1,0-0.2,0-0.2-0.1l-29.4-50.9c0-0.1,0-0.2,0-0.2c0-0.1,0.1-0.1,0.2-0.1h9.9
		c0.1,0,0.2,0,0.2,0.1l19.3,33.4l19.3-33.4c0-0.1,0.1-0.1,0.2-0.1h9.9c0.1,0,0.2,0,0.2,0.1c0,0.1,0,0.2,0,0.2L108,174.2
		C108,174.3,107.9,174.3,107.8,174.3z"/>
</g>
<g id="XMLID_15_">
	<path id="XMLID_16_" class="st1" d="M167.1,174.3c-0.1,0-0.2,0-0.2-0.1l-19.3-33.4l-19.3,33.4c0,0.1-0.1,0.1-0.2,0.1h-9.9
		c-0.1,0-0.2,0-0.2-0.1c0-0.1,0-0.2,0-0.2l29.4-50.9c0-0.1,0.1-0.1,0.2-0.1c0.1,0,0.2,0,0.2,0.1l29.4,50.9c0,0.1,0,0.2,0,0.3
		c0,0.1-0.1,0.1-0.2,0.1H167.1z"/>
</g>
<g id="XMLID_13_">
	<path id="XMLID_14_" class="st1" d="M193,174.3c-0.1,0-0.2,0-0.2-0.1l-19.3-33.4l-19.3,33.4c0,0.1-0.1,0.1-0.2,0.1h-9.9
		c-0.1,0-0.2,0-0.2-0.1c0-0.1,0-0.2,0-0.3l29.4-50.9c0-0.1,0.1-0.1,0.2-0.1c0.1,0,0.2,0,0.2,0.1l29.4,50.9c0,0.1,0,0.2,0,0.2
		c0,0.1-0.1,0.1-0.2,0.1H193z"/>
</g>
</svg>
